<?xml version="1.0" encoding="utf-8"?>
<!-- Generator: Adobe Illustrator 20.0.0, SVG Export Plug-In . SVG Version: 6.00 Build 0)  -->
<!DOCTYPE svg PUBLIC "-//W3C//DTD SVG 1.1//EN" "http://www.w3.org/Graphics/SVG/1.1/DTD/svg11.dtd">
<svg version="1.1" id="Layer_1" xmlns="http://www.w3.org/2000/svg" xmlns:xlink="http://www.w3.org/1999/xlink" x="0px" y="0px"
	 viewBox="0 0 100 100" style="enable-background:new 0 0 100 100;" xml:space="preserve">
<style type="text/css">
	.st0{fill:#3D3D3B;}
</style>
<g>
	<path class="st0" d="M37.8,52.4c-1.9,0-3.7,0.6-5.6,0.6c-2,0-3.9,0-5.9,0c-0.2,0-0.3-0.1-0.3-0.1c0,3.2,0,6.5,0,9.7
		c0,0.1-0.2,0.4-0.2,0.5c0,0.3-0.1,0.5,0.2,0.6c0.1,0,0.1,0.4,0.2,0.4c3.7,0,7.5,0,11.2,0c0.5,0,0.9-0.4,1.4-0.5
		c1.6-0.4,2.8-1.7,3.3-3.3c0.6-1.8,0.5-3.4-0.1-5.2C41.3,53.2,39.5,52.4,37.8,52.4z"/>
	<path class="st0" d="M26,44.7c0,0.6-0.4,1.3,0.2,1.3c3.7,0,7.4,0,11.1,0c0.2,0,0.4-0.3,0.6-0.3c0.8-0.1,1.6-0.7,2.1-1.4
		c0.3-0.4,0.5-0.9,0.7-1.4c0.3-1.1,0.4-2.2,0.3-3.4c0-0.6-0.2-1.1-0.4-1.6c-0.5-1.3-1.5-2-3-2c-1.9,0-3.7,0.1-5.6,0.1
		c-1.9,0-3.9,0-5.8,0c-0.1,0-0.2-0.1-0.3-0.1c-0.2,0-0.2,0-0.2,0.3c0,0.1,0.2,0.2,0.2,0.3C26,39.2,26,42,26,44.7z"/>
	<path class="st0" d="M50,1.9C23.4,1.9,1.9,23.4,1.9,50c0,26.6,21.5,48.1,48.1,48.1S98.1,76.6,98.1,50S76.6,1.9,50,1.9z M60.4,31.2
		c0-0.3,0-0.3,0.4-0.3c0.1,0,0.2,0.1,0.3,0.1c5.4,0,10.7,0,16.1,0c0.7,0,0.7-0.1,0.7,0.6c0,1.3,0,2.5,0,3.8c0,0.6,0,0.6-0.6,0.6
		c-2.7,0-5.4,0-8.2,0c-2.6,0-5.3,0-7.9,0c-0.1,0-0.2,0-0.3,0c-0.5,0-0.5,0-0.5-0.5c0-1,0-2.1,0-3.1C60.4,32,60.4,31.6,60.4,31.2z
		 M50.6,63.5c-0.9,2.2-2.4,3.9-4.5,5.2c-2,1.2-4.1,1.8-6.4,2c-0.7,0.1-1.3,0.1-2,0.1c-7,0-13.9,0-20.9,0c-0.8,0-0.7,0.1-0.7-0.8
		c0-13.6,0-27.3,0-40.9c0-0.8-0.1-0.8,0.7-0.8c7.1,0,14.3,0,21.4,0c2.1,0,4.2,0.4,6.1,1.3c3.1,1.5,4.9,3.9,5.5,7.3
		c0.2,0.9,0.3,1.7,0.3,2.6c0,1.5-0.2,3-0.9,4.4c-0.9,1.8-2.3,2.9-4.2,3.5c-0.3,0.1-0.6,0.2-0.8,0.2c0.1,0.1,0.2,0.1,0.4,0.1
		c2.4,0.2,4.3,1.4,5.5,3.5c0.8,1.3,1.2,2.8,1.4,4.3c0.1,0.9,0.2,1.8,0.2,2.7C51.5,60,51.3,61.8,50.6,63.5z M84.4,57.2
		c0,0.6-0.1,0.8-0.7,0.8c-3.5,0-6.9,0-10.4,0c-3.5,0-6.9,0-10.4,0c-0.7,0-0.7-0.2-0.6,0.5c0.1,1,0.3,1.8,0.7,2.7
		c0.9,1.9,2.4,3,4.4,3.6c1.1,0.3,2.3,0.4,3.5,0.3c1-0.1,2-0.2,2.9-0.6c1.2-0.5,2.2-1.2,2.6-2.5c0.1-0.3,0.2-0.5,0.2-0.8
		c0-0.2,0.1,0.1,0.4,0.1c0.1,0,0.2,0.8,0.3,0.8c2.1,0,4.1,0,6.2,0c0.1,0,0.2-0.8,0.2-0.8c0.4,0,0.4-0.7,0.4-0.4
		c-0.1,0.6-0.1,1.1-0.2,1.7c-0.4,2.2-1.3,4.1-2.9,5.6c-1.4,1.3-3.2,2.2-5.1,2.7c-2,0.6-4,0.8-6.1,0.8c-2,0-4.1-0.2-6-0.7
		c-2.5-0.7-4.7-1.8-6.4-3.7c-1.3-1.4-2.3-3-3-4.8c-1-2.5-1.3-5.1-1.1-7.8c0.2-3.1,1.1-6.1,2.8-8.8c2.1-3.3,5.1-5.4,8.9-6.3
		c1.9-0.5,3.9-0.6,5.9-0.5c1.8,0.1,3.5,0.4,5.2,1.1c3.2,1.3,5.4,3.5,6.8,6.6c0.9,1.9,1.3,4,1.5,6.1c0.1,1.3,0.1,2.7,0.1,3.9
		C84.4,57,84.4,57.1,84.4,57.2z"/>
	<path class="st0" d="M75.4,48.7c-0.7-1.4-1.7-2.4-3.2-2.9c-1.3-0.4-2.6-0.5-3.9-0.3c-1.4,0.2-2.6,0.8-3.7,1.8
		c-1.2,1.2-1.9,2.7-2.3,4.3c-0.1,0.4,0,0.8,0.4,0.8c0.1,0,0.2,0.5,0.2,0.5c2.1,0,4.2,0,6.2,0c2.1,0,4.3-0.5,6.4-0.5
		c0.5,0,0.5-0.3,0.5-0.8C76.1,50.7,75.8,49.5,75.4,48.7z"/>
</g>
</svg>
