<?xml version="1.0" encoding="utf-8"?>
<!-- Generator: Adobe Illustrator 20.0.0, SVG Export Plug-In . SVG Version: 6.00 Build 0)  -->
<!DOCTYPE svg PUBLIC "-//W3C//DTD SVG 1.1//EN" "http://www.w3.org/Graphics/SVG/1.1/DTD/svg11.dtd">
<svg version="1.1" id="Layer_1" xmlns="http://www.w3.org/2000/svg" xmlns:xlink="http://www.w3.org/1999/xlink" x="0px" y="0px"
	 viewBox="0 0 100 100" style="enable-background:new 0 0 100 100;" xml:space="preserve">
<style type="text/css">
	.st0{fill:#3D3D3B;}
</style>
<g>
	<path class="st0" d="M34.8,82c0,0.6,0.5,0.7,1,0.7c0.4-0.1,1-0.1,1-0.7c0-0.6-0.5-0.7-0.9-0.7C35.4,81.3,34.8,81.4,34.8,82z"/>
	<path class="st0" d="M38.4,81.6c0,0.5,0.5,0.6,0.9,0.6c0.5-0.1,1.1-0.2,1.1-0.8c0-0.5-0.5-0.6-0.9-0.6C39,80.9,38.4,81,38.4,81.6z"
		/>
	<path class="st0" d="M50,1.9C23.4,1.9,1.9,23.4,1.9,50c0,22.9,16,42.1,37.4,46.9c0.8-0.4,1.3-1.2,1.3-2.5c-0.1-2.5-0.1-5.1-0.1-7.7
		c0-0.5-0.1-0.6-0.6-0.5c-2.1,0.4-4.2,0.6-6.4,0.4C29.3,86,26,84.2,24.3,80c-1.1-2.6-2.7-4.9-5.2-6.4c-0.5-0.3-1-0.7-1.3-1.1
		c-0.5-0.6-0.4-1.1,0.4-1.3c0.8-0.3,1.6-0.3,2.4-0.1c2.8,0.6,4.8,2.3,6.3,4.7c0.7,1,1.4,2,2.3,2.9c2.9,2.5,6.1,2.7,9.6,1.8
		c1.2-0.3,2-0.7,2.2-2.2c0.2-1.8,1.2-3.4,2.6-4.8c-0.3,0-0.4-0.1-0.5-0.1c-2.4-0.3-4.7-0.7-6.9-1.4C30.3,70,26,66.5,23.8,60.7
		c-1.1-3.1-1.6-6.3-1.7-9.5c-0.2-5,1.2-9.4,4.5-13.1c0.2-0.2,0.3-0.4,0.2-0.8c-1.1-3.1-1-6.3-0.2-9.4c0.7-2.9,1-3.1,4-2.4
		c3.4,0.8,6.5,2.5,9.4,4.3c0.3,0.2,0.6,0.3,1.1,0.2c7.5-1.9,15-1.9,22.5,0c0.5,0.1,0.8,0,1.1-0.2c2.1-1.4,4.3-2.7,6.7-3.6
		c1.6-0.6,3.2-1.1,5-1c0.4,0,0.7,0,0.9,0.5c1.4,3.7,1.8,7.5,0.5,11.4c-0.2,0.5-0.1,0.8,0.3,1.2c1.8,2,3,4.3,3.7,6.9
		c1.1,4,0.8,8.1,0,12.1c-1.3,6.5-4.9,11.2-11.1,13.7c-3.1,1.3-6.3,1.9-9.7,2.3c0.6,0.7,1.2,1.3,1.6,2.1c1.2,2.1,1.6,4.4,1.5,6.8
		c0,4.2,0,8.4,0,12.6c0,0.5,0.1,0.9,0.3,1.3c19.6-6.1,33.8-24.4,33.8-46C98.1,23.4,76.6,1.9,50,1.9z"/>
	<path class="st0" d="M31,81.3c0.1,0.6,0.6,0.8,1.2,0.8c0.4,0,0.8-0.1,0.8-0.6c-0.1-0.7-0.7-0.7-1.2-0.9
		C31.4,80.7,30.9,80.8,31,81.3z"/>
	<path class="st0" d="M27.8,79.1c-0.1,0.5,0.5,1.2,1.1,1.2c0.3,0,0.6-0.1,0.6-0.5c0-0.5-0.6-1.1-1.1-1.2
		C28.1,78.6,27.8,78.8,27.8,79.1z"/>
	<path class="st0" d="M24.3,73.6c-0.3-0.1-0.6,0.2-0.5,0.5c0.1,0.5,0.4,0.8,0.9,0.9c0.3,0,0.5-0.1,0.5-0.5
		C25.1,74,24.8,73.7,24.3,73.6z"/>
	<path class="st0" d="M21.8,72.3c0,0.4,0.4,0.6,0.7,0.6c0.3,0,0.5-0.1,0.6-0.4c-0.1-0.4-0.4-0.6-0.8-0.6C22,71.9,21.7,72,21.8,72.3z
		"/>
	<path class="st0" d="M26.1,76c-0.4,0-0.5,0.2-0.6,0.6c0,0.5,0.5,1.1,1,1.1c0.3,0,0.5-0.2,0.5-0.6C27.1,76.6,26.6,76,26.1,76z"/>
</g>
</svg>
