<?xml version="1.0" encoding="utf-8"?>
<!-- Generator: Adobe Illustrator 20.0.0, SVG Export Plug-In . SVG Version: 6.00 Build 0)  -->
<!DOCTYPE svg PUBLIC "-//W3C//DTD SVG 1.1//EN" "http://www.w3.org/Graphics/SVG/1.1/DTD/svg11.dtd">
<svg version="1.1" id="Layer_1" xmlns="http://www.w3.org/2000/svg" xmlns:xlink="http://www.w3.org/1999/xlink" x="0px" y="0px"
	 viewBox="0 0 100 100" style="enable-background:new 0 0 100 100;" xml:space="preserve">
<style type="text/css">
	.st0{fill:#3D3D3B;}
</style>
<path class="st0" d="M50,1.9C23.4,1.9,1.9,23.4,1.9,50c0,26.6,21.5,48.1,48.1,48.1S98.1,76.6,98.1,50S76.6,1.9,50,1.9z M36.9,71.4
	c0,0.2,0,0.3-0.3,0.3c-2.9,0-5.7,0-8.6,0c-0.2,0-0.2-0.1-0.2-0.3c0-4.8,0.1-9.6,0.1-14.4s0-9.6,0-14.4c0-0.3-0.1-0.3,0.2-0.3
	c2.8,0,5.6,0,8.5,0c0.2,0,0.3,0.1,0.3,0.3C36.9,52.2,36.9,61.8,36.9,71.4z M36.2,37.1c-0.9,0.9-2,1.3-3.2,1.5c-0.3,0-0.7,0.1-1,0.1
	c-1.3,0-2.6-0.3-3.7-1.1c-1.4-1.1-2-2.6-1.9-4.4c0.1-1.6,0.8-2.9,2.1-3.8c0.8-0.6,1.7-0.9,2.7-0.9c1.2-0.1,2.4,0,3.5,0.5
	c1.9,0.9,2.8,2.5,2.8,4.7C37.5,34.9,37.1,36.1,36.2,37.1z M73.3,71.7c-3.3,0-6.7,0-10,0c-0.2,0-0.2-0.1-0.2-0.3c0-5,0-10,0-14.9
	c0-1.3-0.1-2.6-0.7-3.9c-0.7-1.5-1.8-2.5-3.4-2.8c-2.1-0.3-4,0.3-5.3,2.2c-0.6,1-0.9,2-0.9,3.1c0,5.3,0,10.6,0,16
	c0,0.4,0,0.4-0.4,0.4c-3.2,0-6.4,0-9.6,0c-0.3,0-0.3,0-0.3-0.3c0-9,0.1-17.9,0.1-26.9c0-0.6,0-1.3,0-1.9c0-0.2,0-0.2,0.2-0.2
	c3.3,0,6.6,0,9.8,0c0.2,0,0.2,0.1,0.2,0.2c0,1.4,0,2.8,0,4.2c0.2-0.2,0.3-0.5,0.4-0.7c0.7-1.1,1.6-1.9,2.7-2.5
	c2.1-1.2,4.4-1.7,6.9-1.5c1.6,0.1,3.1,0.4,4.6,1.2c2.7,1.3,4.4,3.5,5.3,6.3c0.6,1.8,0.8,3.6,0.8,5.4c0,5.6,0,11.2,0,16.7
	C73.6,71.6,73.5,71.7,73.3,71.7z"/>
</svg>
